#!OML:ASF F:\VICON\USERDATA\INSTALL\Justin_Nancy\Justin_Nancy.ASF
:FULLY-SPECIFIED
:DEGREES
179
root -8.9322 17.5866 -6.22796 -0.596778 -3.90018 -1.98646
lowerback 7.08295 0.180905 0.697815
upperback 0.285731 0.393081 2.53818
thorax -3.69173 0.203396 2.19434
lowerneck -17.4774 -3.02759 -9.03784
upperneck 21.7662 -2.59747 3.7633
head 9.99738 -1.5194 2.47297
rclavicle -2.23633e-016 3.57812e-015
rhumerus -28.5661 -12.9061 -80.0128
rradius 29.2834
rwrist 7.84935
rhand -13.6817 9.52559
rfingers 7.12502
rthumb 12.436 -20.0844
lclavicle -2.23633e-016 3.57812e-015
lhumerus -30.0338 15.2217 82.3672
lradius 25.6264
lwrist -10.8847
lhand -17.6939 20.0692
lfingers 7.12502
lthumb 8.56571 49.8755
rfemur -4.09136 4.23804 29.2952
rtibia 20.8624
rfoot -11.9619 -4.29976
rtoes 7.05542
lfemur -26.5071 2.63979 -17.1334
ltibia 54.7248
lfoot -6.98262 5.06527
ltoes -6.77742
180
root -8.93348 17.5722 -6.10733 -0.397655 -4.18965 -2.1911
lowerback 6.86278 0.282731 0.97155
upperback 0.309053 0.54377 2.52144
thorax -3.54635 0.273205 2.00757
lowerneck -17.4406 -3.0789 -9.06963
upperneck 21.5976 -2.68011 3.83836
head 9.93757 -1.54873 2.49169
rclavicle 1.26725e-015 -7.95139e-015
rhumerus -27.964 -12.2241 -80.4393
rradius 29.6275
rwrist 7.34584
rhand -13.0528 8.37576
rfingers 7.12502
rthumb 13.0423 -21.1965
lclavicle 1.26725e-015 -7.95139e-015
lhumerus -30.1985 15.3071 82.2843
lradius 25.5267
lwrist -11.0544
lhand -16.2385 22.4222
lfingers 7.12502
lthumb 9.97008 52.1661
rfemur -3.89285 4.41768 29.5386
rtibia 20.9801
rfoot -12.2442 -4.23594
rtoes 7.26523
lfemur -26.8861 2.58323 -16.902
ltibia 52.6489
lfoot -7.82772 5.43575
ltoes -8.20778
181
root -8.92575 17.5676 -5.97112 -0.434051 -4.492 -2.18343
lowerback 6.81893 0.369591 1.12386
upperback 0.278732 0.668371 2.45034
thorax -3.55401 0.332108 1.83602
lowerneck -17.1565 -3.07186 -9.24309
upperneck 21.5104 -2.68328 3.97653
head 9.85835 -1.54979 2.56959
rclavicle 2.48481e-017 0
rhumerus -27.7101 -11.3338 -80.8413
rradius 30.1584
rwrist 6.71447
rhand -13.0327 7.68521
rfingers 7.12502
rthumb 13.0617 -21.8858
lclavicle 2.48481e-017 0
lhumerus -30.7036 15.7118 82.0273
lradius 25.5442
lwrist -11.8695
lhand -19.863 14.5268
lfingers 7.12502
lthumb 6.47203 44.4079
rfemur -3.34479 4.32782 29.4718
rtibia 20.9981
rfoot -12.7514 -3.9184
rtoes 7.51879
lfemur -26.7414 2.37082 -16.9249
ltibia 50.386
lfoot -8.35263 6.43703
ltoes -8.52807
182
root -8.91668 17.5606 -5.83495 -0.455307 -4.47717 -2.00464
lowerback 6.72439 0.347798 1.11988
upperback 0.321165 0.631023 2.33118
thorax -3.45467 0.312677 1.71865
lowerneck -17.2795 -3.07061 -9.31673
upperneck 21.5817 -2.66238 4.03075
head 9.90714 -1.54007 2.60416
rclavicle -8.84592e-015 1.98785e-015
rhumerus -27.4975 -10.6456 -81.2184
rradius 30.9254
rwrist 6.40092
rhand -12.8585 7.3762
rfingers 7.12502
rthumb 13.2296 -22.184
lclavicle -8.84592e-015 1.98785e-015
lhumerus -30.8874 15.9009 81.8964
lradius 25.3366
lwrist -11.9772
lhand -19.1609 17.4289
lfingers 7.12502
lthumb 7.14985 47.2881
rfemur -2.78003 4.08918 29.2044
rtibia 20.9732
rfoot -13.2821 -3.73405
rtoes 7.68311
lfemur -26.5788 1.87857 -17.1448
ltibia 47.9689
lfoot -8.69981 7.13741
ltoes -8.33856
183
root -8.91653 17.5459 -5.70781 -0.168151 -4.53805 -2.22006
lowerback 6.40095 0.414381 1.4624
upperback 0.349344 0.733484 2.28105
thorax -3.24144 0.358329 1.466
lowerneck -17.5686 -3.10921 -9.26368
upperneck 21.5882 -2.70675 4.05361
head 9.96598 -1.55062 2.59596
rclavicle -9.7156e-015 1.55052e-014
rhumerus -27.0824 -10.2172 -81.5366
rradius 31.5152
rwrist 6.1824
rhand -12.91 7.42964
rfingers 7.12502
rthumb 13.1799 -22.1338
lclavicle -9.7156e-015 1.55052e-014
lhumerus -30.8223 15.9197 81.8607
lradius 25.0134
lwrist -11.8219
lhand -17.4898 21.689
lfingers 7.12502
lthumb 8.76274 51.487
rfemur -2.54988 4.11636 29.4211
rtibia 20.8631
rfoot -13.5842 -3.76064
rtoes 7.78956
lfemur -26.8462 1.55002 -16.8608
ltibia 45.4576
lfoot -8.2243 7.54735
ltoes -8.46143
184
root -8.92286 17.5298 -5.58924 0.0636311 -4.83481 -2.33814
lowerback 6.2347 0.578044 1.50882
upperback 0.424408 0.947307 2.27569
thorax -3.07308 0.464434 1.41654
lowerneck -18.006 -3.16648 -9.11119
upperneck 21.6158 -2.76128 3.95493
head 10.0577 -1.57062 2.52583
rclavicle 1.20016e-014 -1.35174e-014
rhumerus -26.4005 -9.97555 -81.7209
rradius 31.8478
rwrist 6.11982
rhand -12.5938 8.17143
rfingers 7.12502
rthumb 13.4848 -21.372
lclavicle 1.20016e-014 -1.35174e-014
lhumerus -30.6276 16.2723 81.7979
lradius 24.5954
lwrist -11.9565
lhand -16.5001 23.7846
lfingers 7.12502
lthumb 9.71769 53.5404
rfemur -2.28675 4.4149 29.5901
rtibia 20.7258
rfoot -13.813 -3.89932
rtoes 7.63303
lfemur -27.0278 1.27271 -16.5933
ltibia 42.8686
lfoot -7.5002 7.91414
ltoes -10.7627
185
root -8.92326 17.5229 -5.47034 0.128456 -4.94193 -2.47175
lowerback 6.33777 0.624719 1.60217
upperback 0.446207 1.01996 2.32066
thorax -3.10861 0.49941 1.40329
lowerneck -18.3454 -3.21755 -8.97018
upperneck 21.7508 -2.78713 3.7385
head 10.1667 -1.59532 2.42092
rclavicle -9.56651e-015 -2.10712e-014
rhumerus -25.8796 -9.57182 -81.8748
rradius 32.1084
rwrist 6.3015
rhand -12.7488 8.88861
rfingers 7.12502
rthumb 13.3353 -20.6647
lclavicle -9.56651e-015 -2.10712e-014
lhumerus -30.6704 17.0499 81.5782
lradius 24.1259
lwrist -12.4335
lhand -17.4698 21.1585
lfingers 7.12502
lthumb 8.78197 50.9558
rfemur -1.77944 4.47059 29.734
rtibia 20.5098
rfoot -14.083 -3.9249
rtoes 7.74408
lfemur -26.9474 0.641046 -16.2964
ltibia 40.2833
lfoot -7.65391 8.37749
ltoes -11.8075
186
root -8.92059 17.5169 -5.34759 0.310439 -4.88911 -2.51495
lowerback 6.3848 0.579562 1.68568
upperback 0.2123 0.974721 2.32353
thorax -3.37495 0.474694 1.36239
lowerneck -18.0736 -3.17636 -9.01455
upperneck 21.8191 -2.7404 3.71942
head 10.1378 -1.58366 2.43046
rclavicle 3.35449e-015 1.90833e-014
rhumerus -25.9981 -8.94681 -82.0582
rradius 32.6413
rwrist 6.04597
rhand -13.4174 9.95878
rfingers 7.12502
rthumb 12.6909 -19.6356
lclavicle 3.35449e-015 1.90833e-014
lhumerus -31.2973 17.2469 81.3625
lradius 24.0053
lwrist -12.2445
lhand -17.4355 20.6922
lfingers 7.12502
lthumb 8.81509 50.4881
rfemur -1.38897 4.39219 29.7588
rtibia 20.2895
rfoot -14.2987 -3.95185
rtoes 7.87433
lfemur -26.9447 -0.163908 -16.0791
ltibia 37.6844
lfoot -9.48145 8.86405
ltoes -6.59033
187
root -8.91944 17.5084 -5.2206 0.512148 -4.86282 -2.59253
lowerback 6.33874 0.608628 1.8039
upperback 0.0194483 1.02535 2.28611
thorax -3.54657 0.496778 1.25259
lowerneck -17.7628 -3.19504 -9.0757
upperneck 21.7401 -2.8001 3.80163
head 10.0576 -1.60817 2.46244
rclavicle 6.06293e-015 -2.14687e-014
rhumerus -26.2632 -8.30347 -82.2524
rradius 33.5093
rwrist 5.52874
rhand -14.0562 10.7619
rfingers 7.12502
rthumb 12.0749 -18.8697
lclavicle 6.06293e-015 -2.14687e-014
lhumerus -31.7687 17.1758 81.2646
lradius 23.9613
lwrist -11.8775
lhand -17.2786 21.6926
lfingers 7.12502
lthumb 8.9665 51.4821
rfemur -0.976123 4.39428 29.8458
rtibia 19.9771
rfoot -14.4753 -4.06921
rtoes 7.41981
lfemur -26.9871 -0.992878 -15.7809
ltibia 35.1538
lfoot -9.51263 9.19205
ltoes -8.49082
188
root -8.91638 17.4961 -5.09359 0.67829 -4.94529 -2.54187
lowerback 6.22141 0.71009 1.77399
upperback 0.0153121 1.15223 2.22047
thorax -3.48524 0.560117 1.19102
lowerneck -17.8941 -3.25356 -8.98066
upperneck 21.6571 -2.86988 3.70318
head 10.0545 -1.6411 2.39997
rclavicle -4.32357e-015 -1.31198e-014
rhumerus -26.0404 -7.95942 -82.3308
rradius 34.0223
rwrist 5.26915
rhand -14.2467 11.5082
rfingers 7.12502
rthumb 11.8912 -18.1342
lclavicle -4.32357e-015 -1.31198e-014
lhumerus -31.8343 17.5624 81.1202
lradius 23.7334
lwrist -12.3834
lhand -16.2977 22.8967
lfingers 7.12502
lthumb 9.91291 52.6433
rfemur -0.510333 4.46589 29.7685
rtibia 19.6355
rfoot -14.6792 -4.07797
rtoes 7.57091
lfemur -27.039 -1.67335 -15.6496
ltibia 32.7099
lfoot -9.47713 9.68873
ltoes -9.28611
189
root -8.91415 17.4849 -4.96169 0.879503 -5.05738 -2.58551
lowerback 5.88638 0.74458 1.81352
upperback 0.0663552 1.18878 2.24011
thorax -3.24422 0.579065 1.19014
lowerneck -17.8792 -3.20691 -9.01879
upperneck 21.4103 -2.79099 3.70305
head 9.95849 -1.60358 2.41495
rclavicle -2.31087e-015 -1.66979e-014
rhumerus -25.4454 -7.60643 -82.4505
rradius 34.0869
rwrist 5.06428
rhand -14.1636 11.6811
rfingers 7.12502
rthumb 11.9714 -17.9566
lclavicle -2.31087e-015 -1.66979e-014
lhumerus -31.9637 18.1844 80.9062
lradius 23.5446
lwrist -13.2278
lhand -18.9496 15.2121
lfingers 7.12502
lthumb 7.35381 45.0643
rfemur -0.034092 4.52203 29.7773
rtibia 19.2713
rfoot -14.8946 -4.06189
rtoes 7.49729
lfemur -27.1723 -2.18195 -15.4478
ltibia 30.4058
lfoot -9.40868 10.0177
ltoes -10.5474
190
root -8.91391 17.4798 -4.83009 1.16906 -5.10966 -2.61331
lowerback 5.61647 0.744066 1.82641
upperback 0.0024888 1.18304 2.27762
thorax -3.15918 0.576698 1.22516
lowerneck -18.0122 -3.22171 -9.2494
upperneck 21.4106 -2.75681 3.80799
head 9.98676 -1.5933 2.49438
rclavicle -1.28465e-014 9.93923e-015
rhumerus -25.0337 -7.07977 -82.5885
rradius 34.375
rwrist 4.89524
rhand -13.971 10.8507
rfingers 7.12502
rthumb 12.1571 -18.7761
lclavicle -1.28465e-014 9.93923e-015
lhumerus -32.0765 18.8216 80.7201
lradius 23.1382
lwrist -13.8435
lhand -19.8787 11.8148
lfingers 7.12502
lthumb 6.45691 41.6963
rfemur 0.367174 4.53811 29.7686
rtibia 18.8408
rfoot -15.0305 -4.02339
rtoes 7.2427
lfemur -27.5219 -2.68496 -15.2429
ltibia 28.2801
lfoot -9.18341 10.023
ltoes -12.3578
191
root -8.91253 17.4747 -4.70471 1.47907 -5.01965 -2.68956
lowerback 5.44852 0.730825 1.8997
upperback -0.108261 1.16792 2.27894
thorax -3.17771 0.567853 1.18822
lowerneck -18.2633 -3.24303 -9.23399
upperneck 21.5563 -2.77457 3.83807
head 10.0871 -1.59698 2.50021
rclavicle 1.6027e-014 9.14409e-015
rhumerus -24.9057 -6.71262 -82.7278
rradius 34.8882
rwrist 4.56846
rhand -13.7786 9.19475
rfingers 7.12502
rthumb 12.3426 -20.4209
lclavicle 1.6027e-014 9.14409e-015
lhumerus -32.1746 19.1466 80.554
lradius 22.6822
lwrist -13.9433
lhand -19.3883 13.5035
lfingers 7.12502
lthumb 6.93028 43.3701
rfemur 0.794768 4.38927 29.8147
rtibia 18.2925
rfoot -15.1631 -3.97713
rtoes 6.87613
lfemur -28.0315 -3.20712 -15.0161
ltibia 26.4282
lfoot -9.28166 10.0182
ltoes -13.3884
192
root -8.90829 17.4687 -4.5734 1.80158 -4.83514 -2.7824
lowerback 5.06671 0.694063 2.09227
upperback -0.206108 1.11942 2.25212
thorax -3.05966 0.541003 1.06057
lowerneck -18.2248 -3.22025 -9.13117
upperneck 21.6133 -2.77524 3.82724
head 10.0981 -1.5914 2.48017
rclavicle 2.28851e-014 1.23246e-014
rhumerus -24.8484 -6.48666 -82.8187
rradius 35.1532
rwrist 4.08478
rhand -13.8081 8.57232
rfingers 7.12502
rthumb 12.3142 -21.0451
lclavicle 2.28851e-014 1.23246e-014
lhumerus -32.4414 19.0109 80.5283
lradius 22.5393
lwrist -13.6403
lhand -17.3093 21.4097
lfingers 7.12502
lthumb 8.93689 51.2004
rfemur 1.25605 4.28415 29.886
rtibia 17.7175
rfoot -15.2505 -4.05868
rtoes 6.54348
lfemur -28.6425 -3.7228 -14.8132
ltibia 24.8401
lfoot -9.84728 10.0342
ltoes -12.7964
193
root -8.90603 17.4597 -4.44288 2.11296 -4.7235 -2.98506
lowerback 4.76449 0.674098 2.27905
upperback -0.330146 1.09834 2.31963
thorax -3.01574 0.528087 1.03015
lowerneck -17.9678 -3.18526 -9.1971
upperneck 21.5153 -2.74935 3.89655
head 10.015 -1.57749 2.5199
rclavicle -1.21756e-014 3.97569e-016
rhumerus -24.7606 -6.19388 -82.8322
rradius 35.4201
rwrist 3.78326
rhand -13.8779 9.57273
rfingers 7.12502
rthumb 12.2468 -20.0487
lclavicle -1.21756e-014 3.97569e-016
lhumerus -32.7955 19.1179 80.4791
lradius 22.5066
lwrist -13.6934
lhand -20.6997 11.8102
lfingers 7.12502
lthumb 5.66433 41.7144
rfemur 1.67602 4.22169 30.1024
rtibia 17.2326
rfoot -15.345 -4.17867
rtoes 5.93244
lfemur -29.2606 -4.19171 -14.4614
ltibia 23.4578
lfoot -10.5583 10.1134
ltoes -11.6466
